<svg width="350" height="178" viewBox="0 0 350 178" fill="none" xmlns="http://www.w3.org/2000/svg">
<g filter="url(#filter0_dd)">
<path opacity="0.18" d="M166.817 18.47C158.939 27.0203 154.033 37.6509 147.244 46.9906C142.221 53.9695 136.093 60.218 130.986 67.1674C120.806 81.0072 114.661 97.879 115.783 114.736C116.905 131.593 125.829 148.236 140.705 157.465C149.839 163.138 160.647 165.831 171.396 167.579C207.587 173.481 246.54 168.937 277.465 150.117C282.773 146.886 287.855 143.242 293.614 140.793C308.407 134.492 327.595 135.953 338.319 124.386C344.774 117.421 346.197 107.462 345.979 98.1741C345.72 87.0196 343.242 75.3045 335.531 66.9387C325.485 55.9687 309.077 53.0325 295.498 46.2823C282.262 39.7387 271.588 29.4474 260.22 20.2553C232.869 -1.86914 193.522 -10.5153 166.817 18.47Z" fill="#2F1073"/>
<path d="M298.035 110.03C298.036 110.712 297.879 111.388 297.572 112.015C297.265 112.642 296.816 113.206 296.251 113.674C295.285 114.483 294.038 114.982 292.71 115.09C292.462 115.109 292.213 115.109 291.965 115.09L250.383 114.353C248.789 114.338 247.264 113.775 246.134 112.784C245.003 111.793 244.356 110.453 244.33 109.048C244.327 108.366 244.482 107.69 244.786 107.062C245.09 106.434 245.536 105.867 246.097 105.397C247.251 104.43 248.79 103.9 250.383 103.921H251.798C251.505 103.017 251.356 102.081 251.354 101.14C251.352 99.7955 251.661 98.4647 252.263 97.2292C252.864 95.9937 253.746 94.8794 254.853 93.9546C255.831 93.1309 256.964 92.4643 258.202 91.9849C259.806 91.3688 261.543 91.0668 263.292 91.0996L266.825 91.166C269.023 91.2055 271.168 91.7645 273.037 92.7845C274.906 93.8045 276.429 95.2482 277.449 96.9645C278.467 96.5376 279.586 96.3278 280.713 96.3522H281.626C283.519 96.3692 285.329 97.0363 286.672 98.2116C288.015 99.3868 288.785 100.977 288.817 102.645V102.947C288.817 103.522 288.721 104.094 288.533 104.644L291.973 104.703C293.571 104.722 295.098 105.289 296.23 106.283C297.361 107.278 298.009 108.622 298.035 110.03Z" fill="white"/>
<path d="M292.71 115.09C292.462 115.108 292.213 115.108 291.965 115.09L250.383 114.352C248.789 114.337 247.264 113.774 246.134 112.783C245.003 111.793 244.356 110.452 244.33 109.048C244.327 108.365 244.482 107.689 244.786 107.061C245.09 106.433 245.536 105.867 246.097 105.396C244.422 114.448 255.18 113.15 255.18 113.15H282.195L292.71 115.09Z" fill="url(#paint0_linear)"/>
<path d="M254.845 105.013L251.823 104.002C251.53 103.098 251.381 102.162 251.379 101.221C251.377 99.8766 251.686 98.5458 252.287 97.3103C252.889 96.0747 253.771 94.9604 254.878 94.0356C255.856 93.212 256.989 92.5454 258.227 92.0659C249.864 98.3809 254.845 105.013 254.845 105.013Z" fill="url(#paint1_linear)"/>
<path opacity="0.23" d="M204.397 161.538C233.775 161.538 257.591 142.582 257.591 119.2C257.591 95.8168 233.775 76.8613 204.397 76.8613C175.019 76.8613 151.203 95.8168 151.203 119.2C151.203 142.582 175.019 161.538 204.397 161.538Z" fill="#2F1073"/>
<path d="M270.442 112.183C270.456 122.013 266.825 131.577 260.103 139.42L259.994 139.553C252.627 148.109 242.05 154.078 230.15 156.395C218.25 158.712 205.802 157.226 195.031 152.202C184.26 147.179 175.866 138.944 171.348 128.97C166.83 118.996 166.483 107.931 170.369 97.7521C174.254 87.5732 182.12 78.9429 192.56 73.4025C203 67.8622 215.335 65.7726 227.362 67.507C239.389 69.2414 250.325 74.6868 258.216 82.8707C266.108 91.0546 270.441 101.444 270.442 112.183Z" fill="#2F1073"/>
<path d="M202.53 89.9116C199.709 90.937 196.595 91.1805 193.698 92.0215C190.802 92.8625 187.897 94.5593 187.152 97.1856C186.767 98.5061 186.968 99.9742 186.231 101.169C185.251 102.778 182.957 103.383 181.568 104.71C178.922 107.278 180.664 111.682 183.895 113.666C187.127 115.651 191.254 115.953 195.122 116.536C196.18 116.611 197.189 116.963 198.018 117.547C200.27 119.443 197.775 122.873 198.73 125.485C199.266 126.96 200.848 127.971 201.568 129.387C202.949 132.087 200.856 135.068 199.475 137.768C196.983 142.694 196.758 148.28 198.847 153.349C198.751 153.471 198.644 153.587 198.529 153.696C193.019 151.565 187.974 148.604 183.619 144.946C179.374 139.701 176.017 133.983 176.369 127.698C176.561 124.29 177.851 120.999 178.094 117.606C178.495 112.095 176.235 106.112 179.299 101.302C180.973 98.6389 184.238 95.7175 182.413 93.1355C179.19 93.5486 175.716 93.615 172.761 92.6264C176.387 85.9694 181.805 80.1946 188.543 75.8048C195.282 71.4151 203.136 68.5436 211.421 67.4404C214.602 75.4521 212.074 86.3705 202.53 89.9116Z" fill="url(#paint2_linear)"/>
<path d="M270.442 112.183C270.445 115.047 270.14 117.906 269.529 120.719C268.164 121.697 266.885 122.765 265.703 123.913C261.643 128.103 260.764 133.917 260.103 139.405C260.103 139.523 260.103 139.641 260.061 139.752C260.061 139.678 260.061 139.612 259.994 139.538C259.671 138.129 258.974 136.806 257.959 135.68C256.804 134.581 254.753 134.035 253.347 134.898C252.677 133.422 252.004 131.959 251.329 130.508C247.143 130.508 242.823 130.508 238.889 129.203C234.954 127.897 231.697 125.396 228.55 122.954C228.963 118.723 228.873 114.465 228.282 110.25C240.509 109.081 251.82 103.983 260.052 95.9311C252.689 95.6077 245.389 97.2674 239.123 100.689C237.784 101.427 236.427 102.253 234.862 102.371C233.87 102.393 232.881 102.274 231.932 102.017L221.81 99.7526C220.546 94.013 225.059 88.2514 230.86 85.4111C235.214 83.2865 240.496 83.6996 244.674 81.8405C247.537 80.5716 248.374 78.3511 250.877 76.7207H250.927C257.008 80.9493 261.923 86.3368 265.302 92.4787C268.682 98.6206 270.439 105.357 270.442 112.183Z" fill="url(#paint3_linear)"/>
<path d="M234.962 103.014C234.661 103.884 234.376 104.902 234.962 105.633C235.25 105.945 235.629 106.182 236.059 106.319C236.559 106.529 237.115 106.614 237.666 106.563C238.217 106.512 238.742 106.328 239.181 106.031C239.641 105.588 239.966 105.05 240.127 104.467C240.91 102.35 241.47 100.175 241.802 97.9678C241.865 97.7649 241.865 97.5509 241.802 97.3481C241.671 97.1353 241.461 96.9686 241.207 96.8759C239.876 96.2489 237.792 95.7472 237.021 97.1341C236.075 98.9194 235.632 101.125 234.962 103.014Z" fill="#FBC4D6"/>
<path d="M238.989 104.024C239.27 103.99 239.556 104.013 239.826 104.091C240.01 104.18 240.17 104.304 240.295 104.452L243.183 107.307C243.744 107.86 244.33 108.62 243.937 109.277C243.798 109.46 243.615 109.613 243.4 109.725C243.186 109.837 242.946 109.906 242.698 109.926C241.299 110.039 239.892 109.796 238.646 109.225C237.758 108.886 236.879 108.488 236.017 108.119C235.376 107.862 234.816 107.472 234.385 106.983C233.723 106.097 233.547 103.973 234.703 103.294C235.297 102.962 235.816 103.198 236.377 103.427C237.179 103.812 238.076 104.017 238.989 104.024Z" fill="#2F1073"/>
<path d="M250.969 112.737C250.992 112.901 250.972 113.067 250.911 113.224C250.811 113.375 250.666 113.5 250.492 113.585C249.943 113.918 249.299 114.11 248.633 114.139C248.301 114.15 247.97 114.093 247.666 113.972C247.363 113.852 247.095 113.672 246.884 113.445C246.576 113.016 246.389 112.527 246.34 112.021C246.094 110.933 245.974 109.826 245.98 108.716C245.965 108.651 245.967 108.584 245.984 108.519C246.002 108.455 246.036 108.394 246.083 108.342C246.13 108.29 246.189 108.248 246.257 108.218C246.324 108.189 246.398 108.172 246.474 108.17C247.512 107.979 249.579 107.499 250.107 108.62C250.644 109.943 250.935 111.333 250.969 112.737Z" fill="#FBC4D6"/>
<path d="M255.364 112.626C256.256 112.669 257.137 112.817 257.984 113.069C258.405 113.197 258.791 113.4 259.12 113.665C259.448 113.931 259.711 114.252 259.893 114.611C260.062 114.961 260.083 115.354 259.951 115.717C259.662 116.256 259.154 116.68 258.528 116.905C255.553 118.298 252.196 118.934 248.834 118.742C247.971 118.772 247.128 118.508 246.481 118.004C246.014 117.395 245.796 116.664 245.862 115.931L245.745 112.464C246.502 112.494 247.242 112.678 247.905 113.002C249.144 113.371 249.629 112.486 250.65 112.265C251.982 111.992 254.007 112.508 255.364 112.626Z" fill="#2F1073"/>
<path d="M238.989 104.024C239.27 103.99 239.556 104.013 239.826 104.091C240.01 104.18 240.17 104.304 240.295 104.452L243.183 107.307C243.744 107.86 244.33 108.62 243.937 109.277C243.798 109.46 243.615 109.613 243.4 109.725C243.186 109.837 242.946 109.906 242.698 109.926C241.299 110.039 239.892 109.796 238.646 109.225C237.758 108.886 236.879 108.488 236.017 108.119C235.376 107.862 234.816 107.472 234.385 106.983C233.723 106.097 233.547 103.973 234.703 103.294C235.297 102.962 235.816 103.198 236.377 103.427C237.179 103.812 238.076 104.017 238.989 104.024Z" fill="url(#paint4_linear)"/>
<path d="M255.364 112.626C256.256 112.669 257.137 112.817 257.984 113.069C258.405 113.197 258.791 113.4 259.12 113.665C259.448 113.931 259.711 114.252 259.893 114.611C260.062 114.961 260.083 115.354 259.951 115.717C259.662 116.256 259.154 116.68 258.528 116.905C255.553 118.298 252.196 118.934 248.834 118.742C247.971 118.772 247.128 118.508 246.481 118.004C246.014 117.395 245.796 116.664 245.862 115.931L245.745 112.464C246.502 112.494 247.242 112.678 247.905 113.002C249.144 113.371 249.629 112.486 250.65 112.265C251.982 111.992 254.007 112.508 255.364 112.626Z" fill="url(#paint5_linear)"/>
<path d="M207.67 75.0608C205.87 74.923 204.057 74.9477 202.262 75.1346C202.028 75.1451 201.8 75.2086 201.601 75.319C201.487 75.4139 201.395 75.5282 201.332 75.6549C201.268 75.7816 201.235 75.9183 201.233 76.0567C200.981 78.1961 202.907 80.0552 204.983 81.1839C210.601 84.2529 217.683 84.1348 223.886 86.1415C224.478 86.2797 225.004 86.5823 225.385 87.0046C225.644 87.4622 225.77 87.969 225.753 88.4801C226.03 91.3646 227.846 93.9614 228.449 96.8016C229.052 99.6419 228.407 102.615 228.901 105.477C230.935 103.567 234.401 103.264 236.436 101.376C238.344 99.6345 238.721 97.0377 239.006 94.6327L239.776 88.0374C239.919 87.5618 239.86 87.0566 239.61 86.6166C239.36 86.1766 238.937 85.8319 238.42 85.6472C229.261 80.4314 218.529 75.887 207.67 75.0608Z" fill="url(#paint6_linear)"/>
<path d="M244.707 74.3966C245.553 74.5462 246.337 74.8955 246.976 75.4073C247.63 76.2105 247.928 77.1974 247.813 78.1811C247.793 85.1811 246.291 92.1164 243.384 98.6309C243.357 98.8599 243.266 99.0795 243.12 99.2705C242.975 99.4615 242.778 99.6181 242.547 99.7265C242.317 99.835 242.06 99.892 241.798 99.8927C241.537 99.8933 241.28 99.8375 241.049 99.7302C239.308 99.3161 237.592 98.8236 235.908 98.2547L238.185 84.9756C238.294 84.6071 238.271 84.218 238.118 83.8616C237.95 83.6089 237.715 83.3962 237.432 83.2419C234.835 81.5771 232.091 80.097 229.228 78.8156C226.942 77.7975 224.322 76.6024 223.702 74.4482C223.574 74.0802 223.548 73.6902 223.626 73.3114C223.705 72.9326 223.886 72.576 224.154 72.2719C224.517 71.9585 224.943 71.7082 225.41 71.5342C226.925 70.8776 228.834 70.0588 230.576 70.1915C231.974 70.317 232.509 71.0252 233.673 71.549C236.905 72.9654 241.199 73.4966 244.707 74.3966Z" fill="#282328"/>
<path d="M229.153 53.2765C230.274 55.9987 230.827 58.8832 231.815 61.6349C232.031 62.3643 232.419 63.0455 232.953 63.6342C233.663 64.2344 234.524 64.6792 235.465 64.9326C236.776 65.3801 238.11 65.7711 239.467 66.1056C240.371 66.3195 241.451 66.6884 241.551 67.4999C241.572 67.7705 241.509 68.0411 241.367 68.2819C241.017 68.8315 240.513 69.2929 239.904 69.6222C239.294 69.9516 238.599 70.1378 237.884 70.1631C236.458 70.1968 235.038 69.9915 233.698 69.5581C232.479 69.3406 231.36 68.8092 230.484 68.031C229.985 67.3839 229.636 66.6571 229.454 65.8916C228.08 61.5941 226.174 57.4427 223.77 53.5126C223.05 52.4747 222.488 51.3587 222.095 50.1928C221.543 48.1567 221.534 43.3319 223.92 45.1025C225.846 46.5337 228.307 51.2551 229.153 53.2765Z" fill="#FBC4D6"/>
<path d="M220.019 74.1389C221.43 73.657 222.804 73.0926 224.13 72.4495C229.153 70.0002 225.042 68.7977 223.368 65.8542C222.171 63.7664 222.656 61.2656 223.276 59.0007C224.372 55.017 225.837 50.8857 224.783 46.9094C224.651 46.264 224.365 45.6506 223.945 45.1093C223.638 44.7735 223.284 44.4736 222.891 44.2167C221.83 43.4095 220.61 42.7817 219.291 42.365C216.779 41.6272 213.933 42.1658 211.547 43.2207C202.171 47.3668 200.17 57.8351 200.546 66.2083C200.647 68.5322 201.057 70.9888 202.757 72.7667C204.456 74.5446 206.859 75.2234 209.32 75.4889C212.958 75.8166 216.632 75.3531 220.019 74.1389Z" fill="white"/>
<path d="M206.038 69.4021C206.114 70.1879 206.401 70.9466 206.875 71.6153C207.712 72.6555 209.253 73.0391 210.667 73.3415L217.038 74.7285C217.815 74.9359 218.621 75.0428 219.433 75.0457C221.174 74.9719 222.673 73.9907 224.054 73.0465C224.407 72.8336 224.713 72.5662 224.958 72.2571C221.442 71.962 217.934 71.6521 214.435 71.2021C212.375 70.9366 210.199 70.5677 208.683 69.3209C207.901 68.6395 207.305 67.8093 206.942 66.8938C206.691 66.3258 206.574 64.8798 205.845 64.7544C205.662 66.3039 205.727 67.8685 206.038 69.4021Z" fill="url(#paint7_linear)"/>
<path d="M218.612 48.8499C218.611 49.0825 218.506 49.3054 218.319 49.4696C218.145 49.5599 217.941 49.5963 217.741 49.5729C217.085 49.5458 216.443 49.3951 215.859 49.131C215.275 48.8669 214.761 48.4954 214.353 48.0417C213.946 47.588 213.653 47.0626 213.495 46.5008C213.337 45.939 213.318 45.354 213.438 44.785C213.589 44.0473 213.949 43.4128 214.175 42.7194C214.619 41.3325 214.543 39.7685 215.539 38.625C216.402 40.364 217.386 42.0542 218.486 43.6858C218.768 44.0102 218.963 44.3859 219.059 44.7853C219.154 45.1848 219.147 45.598 219.039 45.9949L218.612 48.8499Z" fill="#FBC4D6"/>
<path d="M219.107 45.2792L218.73 47.4924C218.73 47.4924 214.419 45.6112 214.98 42.1217C215.54 38.6323 219.107 45.2792 219.107 45.2792Z" fill="url(#paint8_linear)"/>
<path d="M224.146 43.1251C223.925 43.8341 223.456 44.4638 222.806 44.9252C222.496 45.1103 222.15 45.2429 221.785 45.3162C220.503 45.5354 219.175 45.3915 217.992 44.9051C216.808 44.4188 215.83 43.615 215.197 42.6087C214.599 41.5894 214.259 40.4686 214.198 39.3228C214.138 38.1769 214.358 37.033 214.845 35.9692C215.243 34.8023 216.145 33.8197 217.356 33.2322C218.019 33.002 218.735 32.92 219.442 32.9934C220.149 33.0667 220.825 33.2933 221.408 33.6527C222.994 34.6284 224.22 35.9931 224.933 37.5774C225.544 39.193 224.774 41.5833 224.146 43.1251Z" fill="#FBC4D6"/>
<path d="M243.074 83.6701C244.147 84.8742 244.995 86.2215 245.586 87.6612C248.878 94.6579 251.018 102.034 251.94 109.564C249.252 109.859 246.533 109.859 243.845 109.564C243.634 104.248 242.704 98.9727 241.074 93.8507C240.786 92.7483 240.29 91.6961 239.609 90.7375C238.411 89.2104 236.444 88.3252 234.586 87.4989C230.237 85.6367 225.692 84.1542 221.015 83.0725C219.039 82.593 217.047 82.1504 215.105 81.5971C213.472 81.1102 208.893 79.3249 207.57 78.3585C206.877 77.8953 206.297 77.3135 205.866 76.6479C205.434 75.9824 205.159 75.2468 205.059 74.4854C205.059 74.869 217.817 75.6362 218.73 75.5477C221.802 75.26 225.427 73.7108 228.457 74.81C230.827 75.6658 232.995 77.4511 235.155 78.6831C237.775 80.129 240.973 81.5307 243.074 83.6701Z" fill="#473F47"/>
<path d="M229.094 83.1022L213.522 76.3962L231.781 69.5723L247.361 75.57L229.094 83.1022Z" fill="#2F1073"/>
<path d="M205.377 51.6163C205.377 51.8745 205.302 52.1253 205.268 52.354C204.808 56.1312 205.226 59.8346 205.385 63.5896C205.486 65.9135 205.829 70.3398 208.634 71.5276C213.874 73.7407 223.987 72.8997 223.987 72.8997C225.16 72.7341 226.358 72.7767 227.512 73.0251C228.14 73.1948 228.717 73.4825 229.328 73.6891C231.539 74.4268 234.008 74.058 236.336 73.6891C236.737 73.6472 237.124 73.5342 237.474 73.3571C237.88 73.0392 238.128 72.5933 238.164 72.1156C238.2 71.638 238.021 71.1671 237.667 70.8046C236.911 70.105 235.929 69.6283 234.854 69.4398C231.915 68.5944 228.766 68.4871 225.762 69.1299C225.378 69.2439 224.987 69.3375 224.59 69.4103C224.125 69.4767 223.654 69.5063 223.184 69.4988H219.617C215.515 69.4988 211.647 69.5431 211.028 65.3159C210.799 63.7503 210.754 62.1681 210.894 60.5944C211.137 57.7542 211.982 54.9361 211.806 52.0958C211.796 51.195 211.54 50.3096 211.061 49.5138C210.819 49.1186 210.465 48.7849 210.034 48.5447C209.603 48.3045 209.109 48.1657 208.6 48.1416C208.073 48.1763 207.565 48.3303 207.125 48.5888C206.685 48.8473 206.328 49.2015 206.089 49.6171C205.718 50.2407 205.477 50.9178 205.377 51.6163Z" fill="#FBC4D6"/>
<path d="M253.774 62.0405L232.007 71.8007L229.094 83.1026L247.361 75.5704L253.774 62.0405Z" fill="#2F1073"/>
<path d="M225.218 39.0529C225.194 38.3506 224.899 37.6765 224.381 37.1422C224.118 36.8733 223.807 36.6441 223.46 36.4635C222.974 36.2127 222.857 36.1906 222.539 36.5963C222.129 37.1201 221.995 37.7324 221.618 38.2783C221.206 38.8838 220.631 39.3905 219.944 39.7538C219.172 40.176 218.273 40.3842 217.365 40.3513C217.005 40.3033 216.638 40.3033 216.277 40.3513C216.156 40.3715 216.041 40.4151 215.941 40.4788C215.842 40.5426 215.759 40.625 215.699 40.7202C215.613 40.9961 215.582 41.2832 215.607 41.5686C215.532 42.3063 214.703 42.8301 214.243 43.4719C213.782 44.1138 213.648 45.0654 213.096 45.7515C212.993 45.8892 212.852 46.001 212.686 46.0761C212.292 46.2237 211.848 46.0318 211.438 45.9654C210.224 45.781 209.245 46.777 208.207 47.3819C206.122 48.5918 203.393 48.2819 200.932 47.9204C200.178 47.8401 199.444 47.6559 198.755 47.3745C198.011 46.9877 197.351 46.4882 196.804 45.8991C195.892 45.0138 194.988 44.1138 194.092 43.2137C193.759 42.9256 193.495 42.582 193.314 42.203C193.218 41.9387 193.192 41.6586 193.238 41.3842C193.32 40.8719 193.492 40.374 193.749 39.9087C194.402 38.6177 195.164 37.216 196.637 36.6332C198.11 36.0504 199.852 36.4857 201.476 36.3381C201.674 36.3377 201.867 36.2836 202.028 36.1832C202.158 36.0545 202.25 35.9001 202.296 35.7332C202.974 33.7487 203.82 31.5945 205.846 30.5691C207.407 29.9082 209.167 29.7041 210.869 29.9863C212.554 30.2669 214.274 30.3537 215.984 30.2445C216.821 30.1264 217.658 29.883 218.496 29.7355C220.453 29.3521 222.502 29.6146 224.255 30.4732C225.12 30.9268 225.844 31.5627 226.361 32.3237C226.879 33.0847 227.173 33.947 227.219 34.8331C227.185 35.1792 227.185 35.5272 227.219 35.8733C227.277 36.1979 227.437 36.5152 227.495 36.8398C227.529 37.1203 227.496 37.4041 227.397 37.6725C227.298 37.9408 227.135 38.1876 226.92 38.3967C226.705 38.6057 226.442 38.7723 226.149 38.8854C225.855 38.9985 225.538 39.0556 225.218 39.0529Z" fill="#FF681C"/>
<path d="M204.615 53.7112C204.356 55.7991 204.328 57.904 204.531 59.9967C204.521 60.1783 204.573 60.3583 204.682 60.5131C204.859 60.6847 205.105 60.7902 205.368 60.8082C206.724 61.0306 208.099 61.1466 209.479 61.1549C209.672 61.2094 209.877 61.2256 210.078 61.2024C210.28 61.1792 210.473 61.1171 210.644 61.0206C210.815 60.9241 210.96 60.7955 211.068 60.644C211.176 60.4925 211.245 60.3219 211.27 60.1442C212.024 57.3703 212.769 54.5965 213.338 51.7857C213.564 50.657 213.723 49.3881 212.953 48.4733C211.839 47.1454 208.834 46.9979 207.386 47.9643C205.636 49.1521 204.891 51.9259 204.615 53.7112Z" fill="white"/>
<path d="M228.307 50.1703L230.676 55.1721C230.793 55.3665 230.84 55.588 230.81 55.8065C230.75 55.9859 230.634 56.1469 230.475 56.2713C229.318 57.3497 227.944 58.2301 226.423 58.8681C225.021 57.7641 223.883 56.4248 223.075 54.9286C222.288 53.1507 222.464 51.1736 222.698 49.2776C222.84 48.0751 222.79 44.2095 225.109 45.707C226.725 46.7325 227.579 48.6284 228.307 50.1703Z" fill="white"/>
<path d="M185.452 97.0893C185.453 97.7712 185.296 98.446 184.991 99.0726C184.685 99.6992 184.239 100.264 183.677 100.734C182.71 101.541 181.463 102.04 180.136 102.15C179.888 102.161 179.639 102.161 179.391 102.15L137.809 101.412C136.212 101.397 134.686 100.834 133.554 99.8416C132.422 98.8496 131.774 97.5074 131.748 96.1008C131.747 95.4189 131.904 94.7441 132.209 94.1175C132.514 93.4909 132.961 92.9257 133.522 92.4564C134.092 91.9741 134.763 91.5955 135.499 91.3423C136.234 91.0891 137.019 90.9663 137.809 90.9809H139.223C138.927 90.0745 138.778 89.1357 138.78 88.1923C138.777 86.8478 139.086 85.5168 139.688 84.2812C140.289 83.0456 141.171 81.9314 142.279 81.0069C143.255 80.1838 144.389 79.5195 145.628 79.0445C147.232 78.4278 148.968 78.1258 150.718 78.1592L154.251 78.2256C156.435 78.2615 158.569 78.8093 160.433 79.8129C162.297 80.8164 163.824 82.2395 164.858 83.9356C165.879 83.5156 166.996 83.3062 168.123 83.3233H169.035C170.927 83.3442 172.735 84.0137 174.076 85.1899C175.417 86.3662 176.185 87.9565 176.218 89.6235V89.926C176.221 90.4981 176.128 91.0674 175.942 91.6154L179.382 91.6818C180.999 91.6954 182.544 92.2714 183.681 93.2842C184.818 94.2971 185.454 95.6647 185.452 97.0893Z" fill="white"/>
<path d="M180.136 102.15C179.888 102.161 179.639 102.161 179.391 102.15L137.809 101.413C136.212 101.397 134.686 100.834 133.554 99.8418C132.422 98.8497 131.774 97.5076 131.748 96.1009C131.747 95.4191 131.904 94.7442 132.209 94.1176C132.514 93.491 132.961 92.9258 133.522 92.4565C131.89 101.501 142.606 100.21 142.606 100.21H169.621L180.136 102.15Z" fill="url(#paint9_linear)"/>
<path d="M142.238 92.0731L139.224 91.0624C138.927 90.156 138.778 89.2171 138.78 88.2738C138.777 86.9292 139.086 85.5983 139.688 84.3627C140.29 83.1271 141.172 82.0129 142.28 81.0883C143.256 80.2653 144.39 79.6009 145.628 79.126C137.282 85.4409 142.238 92.0731 142.238 92.0731Z" fill="url(#paint10_linear)"/>
<path d="M295.138 54.2134C295.138 54.8959 294.981 55.5714 294.674 56.1981C294.367 56.8249 293.918 57.3897 293.355 57.8578C292.384 58.6656 291.134 59.1641 289.805 59.2742C289.557 59.2929 289.308 59.2929 289.06 59.2742L247.486 58.5365C245.903 58.5178 244.39 57.9595 243.265 56.9787C242.139 55.9979 241.489 54.6709 241.45 53.2765C241.441 52.5877 241.594 51.9048 241.898 51.2702C242.201 50.6355 242.65 50.0629 243.216 49.5879C244.375 48.6209 245.916 48.0914 247.511 48.1124H248.918C248.625 47.2078 248.476 46.2718 248.474 45.3312C248.472 43.9867 248.781 42.6559 249.382 41.4203C249.984 40.1848 250.866 39.0705 251.973 38.1457C252.95 37.321 254.083 36.6542 255.322 36.176C256.926 35.5586 258.662 35.2565 260.412 35.2907L263.945 35.3571C266.129 35.3926 268.263 35.9413 270.126 36.9463C271.989 37.9514 273.514 39.3765 274.543 41.0745C275.562 40.6483 276.681 40.4386 277.808 40.4622H278.721C280.613 40.4792 282.424 41.1463 283.767 42.3215C285.11 43.4967 285.88 45.0874 285.912 46.755V47.0574C285.912 47.6322 285.816 48.2039 285.627 48.7542L289.068 48.8132C290.682 48.8307 292.223 49.4068 293.359 50.4173C294.494 51.4277 295.133 52.7913 295.138 54.2134Z" fill="white"/>
<path d="M289.813 59.2738C289.565 59.2925 289.316 59.2925 289.068 59.2738L247.494 58.536C245.91 58.5193 244.395 57.9618 243.268 56.9808C242.141 55.9998 241.489 54.6717 241.45 53.276C241.441 52.5873 241.594 51.9043 241.898 51.2697C242.201 50.6351 242.65 50.0624 243.216 49.5874C241.542 58.6393 252.3 57.3409 252.3 57.3409H279.315L289.813 59.2738Z" fill="url(#paint11_linear)"/>
<path d="M251.923 49.1966L248.901 48.1859C248.609 47.2813 248.459 46.3454 248.458 45.4047C248.455 44.0602 248.764 42.7294 249.366 41.4939C249.968 40.2583 250.849 39.144 251.957 38.2192C252.933 37.3945 254.067 36.7278 255.306 36.2495C246.967 42.5645 251.923 49.1966 251.923 49.1966Z" fill="url(#paint12_linear)"/>
<path d="M216.336 40.3656C216.214 40.3858 216.1 40.4293 216 40.4931C215.9 40.5568 215.818 40.6393 215.758 40.7344C215.672 41.0104 215.64 41.2975 215.666 41.5828C215.591 42.3206 214.762 42.8443 214.301 43.4862C213.841 44.128 213.707 45.0797 213.154 45.7657C213.052 45.9034 212.911 46.0152 212.744 46.0903C212.351 46.2379 211.907 46.0461 211.497 45.9797C210.283 45.7953 209.303 46.7912 208.265 47.3961C206.181 48.606 203.452 48.2961 200.99 47.9347C200.216 47.855 199.461 47.6657 198.755 47.374C198.011 46.9872 197.351 46.4877 196.804 45.8985C195.892 45.0133 194.988 44.1132 194.092 43.2132C193.759 42.925 193.495 42.5815 193.314 42.2025C193.218 41.9382 193.192 41.6581 193.238 41.3836C193.629 41.1759 194.034 40.9911 194.452 40.8303C195.735 40.2234 197.236 40.078 198.638 40.4246C199.76 40.8082 200.555 41.6861 201.518 42.3132C202.86 43.1416 204.494 43.5222 206.125 43.3871C207.757 43.2519 209.281 42.6098 210.425 41.5755C210.847 41.0857 211.343 40.6488 211.899 40.2771C212.895 39.7975 214.921 39.8713 216.336 40.3656Z" fill="url(#paint13_linear)"/>
</g>
<g filter="url(#filter1_dd)">
<path d="M33.8503 63.0464C35.7274 63.0464 36.8223 62.1603 38.1407 60.3683L41.9619 55.091H47.5931C54.4309 55.091 58.6096 51.3693 58.6096 45.4027V29.6888C58.6096 23.7222 54.4309 20.0005 47.5931 20.0005H19.6383C12.8227 20.0005 8.64404 23.7025 8.64404 29.6888V45.4027C8.64404 51.389 12.8227 55.091 19.6383 55.091H25.694L29.5599 60.388C30.8336 62.1406 31.9732 63.0464 33.8503 63.0464Z" fill="white"/>
<path d="M23.1861 50.9199H26.7252V43.7949H34.3424V50.9199H37.8814V34.0098H34.3424V40.877H26.7252V34.0098H23.1861V50.9199ZM43.3892 36.0371C44.4439 36.0371 45.3111 35.1934 45.3111 34.1387C45.3111 33.0723 44.4439 32.2285 43.3892 32.2285C42.3346 32.2285 41.4556 33.0723 41.4556 34.1387C41.4556 35.1934 42.3346 36.0371 43.3892 36.0371ZM41.6666 50.9199H45.0885V38.0176H41.6666V50.9199Z" fill="#4718AD"/>
</g>
<g filter="url(#filter2_dd)">
<path d="M8.60156 96.0005H11.0859L14.707 83.356H14.8711L18.5039 96.0005H20.9766L25.5469 79.0903H22.8164L19.7227 92.2388H19.5586L16.0078 79.0903H13.5703L10.043 92.2388H9.87891L6.77344 79.0903H4.04297L8.60156 96.0005ZM32.5078 96.2466C35.7656 96.2466 37.5234 94.3716 37.9453 92.6958L37.9688 92.5903L35.5195 92.6021L35.4727 92.6958C35.168 93.3521 34.1953 94.1606 32.5664 94.1606C30.4688 94.1606 29.1328 92.7427 29.0859 90.3052H38.1094V89.4146C38.1094 85.5942 35.9297 83.0278 32.3789 83.0278C28.8281 83.0278 26.5312 85.688 26.5312 89.6606V89.6724C26.5312 93.7036 28.7812 96.2466 32.5078 96.2466ZM32.3906 85.1138C34.1133 85.1138 35.3906 86.2153 35.5898 88.4888H29.1211C29.3438 86.2974 30.6562 85.1138 32.3906 85.1138ZM41.25 96.0005H43.793V78.2817H41.25V96.0005ZM52.9336 96.2466C56.0859 96.2466 57.9023 94.5474 58.3594 92.0747L58.3828 91.9692H55.9453L55.9219 92.0278C55.5117 93.3989 54.5273 94.1255 52.9336 94.1255C50.8359 94.1255 49.5352 92.4146 49.5352 89.6021V89.5786C49.5352 86.8364 50.8125 85.1489 52.9336 85.1489C54.6211 85.1489 55.6523 86.0864 55.9336 87.3403L55.9453 87.3755L58.3828 87.3638V87.3052C58.0312 84.8325 56.1211 83.0278 52.9219 83.0278C49.207 83.0278 46.9453 85.5474 46.9453 89.5786V89.6021C46.9453 93.7153 49.2188 96.2466 52.9336 96.2466ZM66.6562 96.2466C70.3828 96.2466 72.668 93.7505 72.668 89.6489V89.6255C72.668 85.5239 70.3711 83.0278 66.6562 83.0278C62.9297 83.0278 60.6328 85.5356 60.6328 89.6255V89.6489C60.6328 93.7505 62.918 96.2466 66.6562 96.2466ZM66.6562 94.1255C64.4648 94.1255 63.2344 92.4731 63.2344 89.6489V89.6255C63.2344 86.8013 64.4648 85.1489 66.6562 85.1489C68.8359 85.1489 70.0781 86.8013 70.0781 89.6255V89.6489C70.0781 92.4614 68.8359 94.1255 66.6562 94.1255ZM75.7031 96.0005H78.2461V88.1841C78.2461 86.52 79.3828 85.2075 80.918 85.2075C82.418 85.2075 83.3672 86.1216 83.3672 87.5747V96.0005H85.8984V87.9497C85.8984 86.4146 86.9648 85.2075 88.582 85.2075C90.2461 85.2075 91.043 86.0747 91.043 87.8325V96.0005H93.5742V87.2231C93.5742 84.5747 92.0742 83.0278 89.5078 83.0278C87.7383 83.0278 86.2734 83.9302 85.6289 85.3013H85.4297C84.8672 83.9302 83.6367 83.0278 81.9023 83.0278C80.2383 83.0278 78.9961 83.8364 78.4336 85.231H78.2461V83.2739H75.7031V96.0005ZM102.469 96.2466C105.727 96.2466 107.484 94.3716 107.906 92.6958L107.93 92.5903L105.48 92.6021L105.434 92.6958C105.129 93.3521 104.156 94.1606 102.527 94.1606C100.43 94.1606 99.0938 92.7427 99.0469 90.3052H108.07V89.4146C108.07 85.5942 105.891 83.0278 102.34 83.0278C98.7891 83.0278 96.4922 85.688 96.4922 89.6606V89.6724C96.4922 93.7036 98.7422 96.2466 102.469 96.2466ZM102.352 85.1138C104.074 85.1138 105.352 86.2153 105.551 88.4888H99.082C99.3047 86.2974 100.617 85.1138 102.352 85.1138ZM5.12109 125H12.0703C15.6797 125 17.8477 123.196 17.8477 120.231V120.208C17.8477 118.004 16.3242 116.387 14.0391 116.141V115.942C15.7031 115.661 17.0039 114.079 17.0039 112.321V112.297C17.0039 109.708 15.0938 108.09 11.918 108.09H5.12109V125ZM11.3086 110.235C13.2539 110.235 14.3906 111.161 14.3906 112.754V112.778C14.3906 114.418 13.1836 115.286 10.8633 115.286H7.74609V110.235H11.3086ZM11.3906 117.29C13.8633 117.29 15.1641 118.227 15.1641 120.043V120.067C15.1641 121.883 13.9102 122.856 11.543 122.856H7.74609V117.29H11.3906ZM24.4219 125.211C26.1094 125.211 27.4453 124.485 28.1953 123.196H28.3945V125H30.9141V116.293C30.9141 113.622 29.1094 112.028 25.9102 112.028C23.0156 112.028 21.0117 113.422 20.707 115.508L20.6953 115.59H23.1445L23.1562 115.543C23.4609 114.641 24.3867 114.125 25.793 114.125C27.5156 114.125 28.3945 114.899 28.3945 116.293V117.418L24.9492 117.618C21.9141 117.805 20.2031 119.129 20.2031 121.403V121.426C20.2031 123.735 21.9961 125.211 24.4219 125.211ZM22.7344 121.321V121.297C22.7344 120.149 23.5312 119.516 25.2891 119.411L28.3945 119.211V120.301C28.3945 121.942 27 123.184 25.1016 123.184C23.7305 123.184 22.7344 122.493 22.7344 121.321ZM39.8555 125.247C43.0078 125.247 44.8242 123.547 45.2812 121.075L45.3047 120.969H42.8672L42.8438 121.028C42.4336 122.399 41.4492 123.125 39.8555 123.125C37.7578 123.125 36.457 121.415 36.457 118.602V118.579C36.457 115.836 37.7344 114.149 39.8555 114.149C41.543 114.149 42.5742 115.086 42.8555 116.34L42.8672 116.375L45.3047 116.364V116.305C44.9531 113.833 43.043 112.028 39.8438 112.028C36.1289 112.028 33.8672 114.547 33.8672 118.579V118.602C33.8672 122.715 36.1406 125.247 39.8555 125.247ZM48.3047 125H50.8477V120.372L51.9375 119.282L56.3203 125H59.4141L53.7539 117.641L59.0625 112.274H56.0859L51.0352 117.641H50.8477V107.282H48.3047V125ZM62.6484 119.399H65.0156L65.25 108.079H62.4023L62.6484 119.399ZM63.8438 125.258C64.9219 125.258 65.6367 124.555 65.6367 123.512C65.6367 122.458 64.9219 121.754 63.8438 121.754C62.7539 121.754 62.0273 122.458 62.0273 123.512C62.0273 124.555 62.7539 125.258 63.8438 125.258Z" fill="white"/>
</g>
<defs>
<filter id="filter0_dd" x="111.651" y="0" width="238.349" height="178" filterUnits="userSpaceOnUse" color-interpolation-filters="sRGB">
<feFlood flood-opacity="0" result="BackgroundImageFix"/>
<feColorMatrix in="SourceAlpha" type="matrix" values="0 0 0 0 0 0 0 0 0 0 0 0 0 0 0 0 0 0 127 0"/>
<feOffset dy="4"/>
<feGaussianBlur stdDeviation="2"/>
<feColorMatrix type="matrix" values="0 0 0 0 0 0 0 0 0 0 0 0 0 0 0 0 0 0 0.25 0"/>
<feBlend mode="normal" in2="BackgroundImageFix" result="effect1_dropShadow"/>
<feColorMatrix in="SourceAlpha" type="matrix" values="0 0 0 0 0 0 0 0 0 0 0 0 0 0 0 0 0 0 127 0"/>
<feOffset dy="4"/>
<feGaussianBlur stdDeviation="2"/>
<feColorMatrix type="matrix" values="0 0 0 0 0 0 0 0 0 0 0 0 0 0 0 0 0 0 0.25 0"/>
<feBlend mode="normal" in2="effect1_dropShadow" result="effect2_dropShadow"/>
<feBlend mode="normal" in="SourceGraphic" in2="effect2_dropShadow" result="shape"/>
</filter>
<filter id="filter1_dd" x="4.64404" y="20.0005" width="57.9656" height="51.0459" filterUnits="userSpaceOnUse" color-interpolation-filters="sRGB">
<feFlood flood-opacity="0" result="BackgroundImageFix"/>
<feColorMatrix in="SourceAlpha" type="matrix" values="0 0 0 0 0 0 0 0 0 0 0 0 0 0 0 0 0 0 127 0"/>
<feOffset dy="4"/>
<feGaussianBlur stdDeviation="2"/>
<feColorMatrix type="matrix" values="0 0 0 0 0 0 0 0 0 0 0 0 0 0 0 0 0 0 0.25 0"/>
<feBlend mode="normal" in2="BackgroundImageFix" result="effect1_dropShadow"/>
<feColorMatrix in="SourceAlpha" type="matrix" values="0 0 0 0 0 0 0 0 0 0 0 0 0 0 0 0 0 0 127 0"/>
<feOffset dy="4"/>
<feGaussianBlur stdDeviation="2"/>
<feColorMatrix type="matrix" values="0 0 0 0 0 0 0 0 0 0 0 0 0 0 0 0 0 0 0.25 0"/>
<feBlend mode="normal" in2="effect1_dropShadow" result="effect2_dropShadow"/>
<feBlend mode="normal" in="SourceGraphic" in2="effect2_dropShadow" result="shape"/>
</filter>
<filter id="filter2_dd" x="0.0429688" y="78.2817" width="112.027" height="54.9766" filterUnits="userSpaceOnUse" color-interpolation-filters="sRGB">
<feFlood flood-opacity="0" result="BackgroundImageFix"/>
<feColorMatrix in="SourceAlpha" type="matrix" values="0 0 0 0 0 0 0 0 0 0 0 0 0 0 0 0 0 0 127 0"/>
<feOffset dy="4"/>
<feGaussianBlur stdDeviation="2"/>
<feColorMatrix type="matrix" values="0 0 0 0 0 0 0 0 0 0 0 0 0 0 0 0 0 0 0.25 0"/>
<feBlend mode="normal" in2="BackgroundImageFix" result="effect1_dropShadow"/>
<feColorMatrix in="SourceAlpha" type="matrix" values="0 0 0 0 0 0 0 0 0 0 0 0 0 0 0 0 0 0 127 0"/>
<feOffset dy="4"/>
<feGaussianBlur stdDeviation="2"/>
<feColorMatrix type="matrix" values="0 0 0 0 0 0 0 0 0 0 0 0 0 0 0 0 0 0 0.25 0"/>
<feBlend mode="normal" in2="effect1_dropShadow" result="effect2_dropShadow"/>
<feBlend mode="normal" in="SourceGraphic" in2="effect2_dropShadow" result="shape"/>
</filter>
<linearGradient id="paint0_linear" x1="270.224" y1="131.541" x2="267.275" y2="88.4296" gradientUnits="userSpaceOnUse">
<stop offset="0.01"/>
<stop offset="0.13" stop-opacity="0.69"/>
<stop offset="0.25" stop-opacity="0.32"/>
<stop offset="1" stop-opacity="0"/>
</linearGradient>
<linearGradient id="paint1_linear" x1="1356.52" y1="2042.81" x2="1758.14" y2="1943.97" gradientUnits="userSpaceOnUse">
<stop offset="0.01"/>
<stop offset="0.13" stop-opacity="0.69"/>
<stop offset="0.25" stop-opacity="0.32"/>
<stop offset="1" stop-opacity="0"/>
</linearGradient>
<linearGradient id="paint2_linear" x1="5045.44" y1="22505" x2="1175.32" y2="-9228.81" gradientUnits="userSpaceOnUse">
<stop offset="0.01"/>
<stop offset="0.13" stop-opacity="0.69"/>
<stop offset="0.25" stop-opacity="0.32"/>
<stop offset="1" stop-opacity="0"/>
</linearGradient>
<linearGradient id="paint3_linear" x1="9196.86" y1="16253.1" x2="7489.13" y2="-7157.58" gradientUnits="userSpaceOnUse">
<stop offset="0.01"/>
<stop offset="0.13" stop-opacity="0.69"/>
<stop offset="0.25" stop-opacity="0.32"/>
<stop offset="1" stop-opacity="0"/>
</linearGradient>
<linearGradient id="paint4_linear" x1="-8839.9" y1="1096.37" x2="-8997.77" y2="1213.49" gradientUnits="userSpaceOnUse">
<stop offset="0.01"/>
<stop offset="0.13" stop-opacity="0.69"/>
<stop offset="0.25" stop-opacity="0.32"/>
<stop offset="1" stop-opacity="0"/>
</linearGradient>
<linearGradient id="paint5_linear" x1="-12533.3" y1="1236.29" x2="-12572.3" y2="1045.97" gradientUnits="userSpaceOnUse">
<stop offset="0.01"/>
<stop offset="0.13" stop-opacity="0.69"/>
<stop offset="0.25" stop-opacity="0.32"/>
<stop offset="1" stop-opacity="0"/>
</linearGradient>
<linearGradient id="paint6_linear" x1="-36064.7" y1="2712.67" x2="-38022.9" y2="6150.81" gradientUnits="userSpaceOnUse">
<stop offset="0.01"/>
<stop offset="0.13" stop-opacity="0.69"/>
<stop offset="0.25" stop-opacity="0.32"/>
<stop offset="1" stop-opacity="0"/>
</linearGradient>
<linearGradient id="paint7_linear" x1="3179.16" y1="851.216" x2="2868.75" y2="1695.4" gradientUnits="userSpaceOnUse">
<stop offset="0.01"/>
<stop offset="0.13" stop-opacity="0.69"/>
<stop offset="0.25" stop-opacity="0.32"/>
<stop offset="1" stop-opacity="0"/>
</linearGradient>
<linearGradient id="paint8_linear" x1="-3182.46" y1="401.584" x2="-3255.19" y2="505.595" gradientUnits="userSpaceOnUse">
<stop offset="0.01"/>
<stop offset="0.13" stop-opacity="0.69"/>
<stop offset="0.25" stop-opacity="0.32"/>
<stop offset="1" stop-opacity="0"/>
</linearGradient>
<linearGradient id="paint9_linear" x1="3610.87" y1="1688.94" x2="3601.99" y2="1119.34" gradientUnits="userSpaceOnUse">
<stop offset="0.01"/>
<stop offset="0.13" stop-opacity="0.69"/>
<stop offset="0.25" stop-opacity="0.32"/>
<stop offset="1" stop-opacity="0"/>
</linearGradient>
<linearGradient id="paint10_linear" x1="322.993" y1="1802.65" x2="724.632" y2="1703.86" gradientUnits="userSpaceOnUse">
<stop offset="0.01"/>
<stop offset="0.13" stop-opacity="0.69"/>
<stop offset="0.25" stop-opacity="0.32"/>
<stop offset="1" stop-opacity="0"/>
</linearGradient>
<linearGradient id="paint11_linear" x1="10055.4" y1="1082" x2="10046.5" y2="512.598" gradientUnits="userSpaceOnUse">
<stop offset="0.01"/>
<stop offset="0.13" stop-opacity="0.69"/>
<stop offset="0.25" stop-opacity="0.32"/>
<stop offset="1" stop-opacity="0"/>
</linearGradient>
<linearGradient id="paint12_linear" x1="1329.9" y1="1007.41" x2="1731.52" y2="908.574" gradientUnits="userSpaceOnUse">
<stop offset="0.01"/>
<stop offset="0.13" stop-opacity="0.69"/>
<stop offset="0.25" stop-opacity="0.32"/>
<stop offset="1" stop-opacity="0"/>
</linearGradient>
<linearGradient id="paint13_linear" x1="3750.9" y1="707.531" x2="3358.47" y2="-125.484" gradientUnits="userSpaceOnUse">
<stop offset="0.01"/>
<stop offset="0.13" stop-opacity="0.69"/>
<stop offset="0.25" stop-opacity="0.32"/>
<stop offset="1" stop-opacity="0"/>
</linearGradient>
</defs>
</svg>
